<svg width="1246" height="223" viewBox="0 0 1246 223" fill="none" xmlns="http://www.w3.org/2000/svg">
<mask id="path-1-outside-1_411_8" maskUnits="userSpaceOnUse" x="26" y="-1" width="1196" height="139" fill="black">
<rect fill="white" x="26" y="-1" width="1196" height="139"/>
<path d="M126.06 8.64V33.3H92.58V135H61.8V33.3H28.32V8.64H126.06ZM245.548 8.64V135H214.768V82.98H166.888V135H136.108V8.64H166.888V58.14H214.768V8.64H245.548ZM293.148 33.3V58.86H334.368V82.62H293.148V110.34H339.768V135H262.368V8.64H339.768V33.3H293.148ZM500.135 135H469.355L417.875 57.06V135H387.095V8.64H417.875L469.355 86.94V8.64H500.135V135ZM547.827 33.3V58.86H589.047V82.62H547.827V110.34H594.447V135H517.047V8.64H594.447V33.3H547.827ZM782.91 8.64L749.97 135H712.71L692.55 51.84L671.67 135H634.41L602.37 8.64H635.31L653.49 100.62L675.99 8.64H709.83L731.43 100.62L749.79 8.64H782.91ZM821.55 110.34C825.63 107.1 827.49 105.6 827.13 105.84C838.89 96.12 848.13 88.14 854.85 81.9C861.69 75.66 867.45 69.12 872.13 62.28C876.81 55.44 879.15 48.78 879.15 42.3C879.15 37.38 878.01 33.54 875.73 30.78C873.45 28.02 870.03 26.64 865.47 26.64C860.91 26.64 857.31 28.38 854.67 31.86C852.15 35.22 850.89 40.02 850.89 46.26H821.19C821.43 36.06 823.59 27.54 827.67 20.7C831.87 13.86 837.33 8.81999 844.05 5.57999C850.89 2.33999 858.45 0.719991 866.73 0.719991C881.01 0.719991 891.75 4.37999 898.95 11.7C906.27 19.02 909.93 28.56 909.93 40.32C909.93 53.16 905.55 65.1 896.79 76.14C888.03 87.06 876.87 97.74 863.31 108.18H911.91V133.2H821.55V110.34ZM920.063 67.5C920.063 46.86 924.023 30.6 931.943 18.72C939.983 6.83999 952.883 0.899988 970.643 0.899988C988.403 0.899988 1001.24 6.83999 1009.16 18.72C1017.2 30.6 1021.22 46.86 1021.22 67.5C1021.22 88.38 1017.2 104.76 1009.16 116.64C1001.24 128.52 988.403 134.46 970.643 134.46C952.883 134.46 939.983 128.52 931.943 116.64C924.023 104.76 920.063 88.38 920.063 67.5ZM990.983 67.5C990.983 55.38 989.663 46.08 987.023 39.6C984.383 33 978.923 29.7 970.643 29.7C962.363 29.7 956.903 33 954.263 39.6C951.623 46.08 950.303 55.38 950.303 67.5C950.303 75.66 950.783 82.44 951.743 87.84C952.703 93.12 954.623 97.44 957.503 100.8C960.503 104.04 964.883 105.66 970.643 105.66C976.403 105.66 980.723 104.04 983.603 100.8C986.603 97.44 988.583 93.12 989.543 87.84C990.503 82.44 990.983 75.66 990.983 67.5ZM1031 110.34C1035.08 107.1 1036.94 105.6 1036.58 105.84C1048.34 96.12 1057.58 88.14 1064.3 81.9C1071.14 75.66 1076.9 69.12 1081.58 62.28C1086.26 55.44 1088.6 48.78 1088.6 42.3C1088.6 37.38 1087.46 33.54 1085.18 30.78C1082.9 28.02 1079.48 26.64 1074.92 26.64C1070.36 26.64 1066.76 28.38 1064.12 31.86C1061.6 35.22 1060.34 40.02 1060.34 46.26H1030.64C1030.88 36.06 1033.04 27.54 1037.12 20.7C1041.32 13.86 1046.78 8.81999 1053.5 5.57999C1060.34 2.33999 1067.9 0.719991 1076.18 0.719991C1090.46 0.719991 1101.2 4.37999 1108.4 11.7C1115.72 19.02 1119.38 28.56 1119.38 40.32C1119.38 53.16 1115 65.1 1106.24 76.14C1097.48 87.06 1086.32 97.74 1072.76 108.18H1121.36V133.2H1031V110.34ZM1130.6 40.68C1131.08 27.84 1135.28 17.94 1143.2 10.98C1151.12 4.01999 1161.86 0.539993 1175.42 0.539993C1184.42 0.539993 1192.1 2.09999 1198.46 5.22C1204.94 8.33999 1209.8 12.6 1213.04 18C1216.4 23.4 1218.08 29.46 1218.08 36.18C1218.08 44.1 1216.1 50.58 1212.14 55.62C1208.18 60.54 1203.56 63.9 1198.28 65.7V66.42C1205.12 68.7 1210.52 72.48 1214.48 77.76C1218.44 83.04 1220.42 89.82 1220.42 98.1C1220.42 105.54 1218.68 112.14 1215.2 117.9C1211.84 123.54 1206.86 127.98 1200.26 131.22C1193.78 134.46 1186.04 136.08 1177.04 136.08C1162.64 136.08 1151.12 132.54 1142.48 125.46C1133.96 118.38 1129.46 107.7 1128.98 93.42H1158.86C1158.98 98.7 1160.48 102.9 1163.36 106.02C1166.24 109.02 1170.44 110.52 1175.96 110.52C1180.64 110.52 1184.24 109.2 1186.76 106.56C1189.4 103.8 1190.72 100.2 1190.72 95.76C1190.72 90 1188.86 85.86 1185.14 83.34C1181.54 80.7 1175.72 79.38 1167.68 79.38H1161.92V54.36H1167.68C1173.8 54.36 1178.72 53.34 1182.44 51.3C1186.28 49.14 1188.2 45.36 1188.2 39.96C1188.2 35.64 1187 32.28 1184.6 29.88C1182.2 27.48 1178.9 26.28 1174.7 26.28C1170.14 26.28 1166.72 27.66 1164.44 30.42C1162.28 33.18 1161.02 36.6 1160.66 40.68H1130.6Z"/>
</mask>
<path d="M126.06 8.64H127.56V7.14H126.06V8.64ZM126.06 33.3V34.8H127.56V33.3H126.06ZM92.58 33.3V31.8H91.08V33.3H92.58ZM92.58 135V136.5H94.08V135H92.58ZM61.8 135H60.3V136.5H61.8V135ZM61.8 33.3H63.3V31.8H61.8V33.3ZM28.32 33.3H26.82V34.8H28.32V33.3ZM28.32 8.64V7.14H26.82V8.64H28.32ZM124.56 8.64V33.3H127.56V8.64H124.56ZM126.06 31.8H92.58V34.8H126.06V31.8ZM91.08 33.3V135H94.08V33.3H91.08ZM92.58 133.5H61.8V136.5H92.58V133.5ZM63.3 135V33.3H60.3V135H63.3ZM61.8 31.8H28.32V34.8H61.8V31.8ZM29.82 33.3V8.64H26.82V33.3H29.82ZM28.32 10.14H126.06V7.14H28.32V10.14ZM245.548 8.64H247.048V7.14H245.548V8.64ZM245.548 135V136.5H247.048V135H245.548ZM214.768 135H213.268V136.5H214.768V135ZM214.768 82.98H216.268V81.48H214.768V82.98ZM166.888 82.98V81.48H165.388V82.98H166.888ZM166.888 135V136.5H168.388V135H166.888ZM136.108 135H134.608V136.5H136.108V135ZM136.108 8.64V7.14H134.608V8.64H136.108ZM166.888 8.64H168.388V7.14H166.888V8.64ZM166.888 58.14H165.388V59.64H166.888V58.14ZM214.768 58.14V59.64H216.268V58.14H214.768ZM214.768 8.64V7.14H213.268V8.64H214.768ZM244.048 8.64V135H247.048V8.64H244.048ZM245.548 133.5H214.768V136.5H245.548V133.5ZM216.268 135V82.98H213.268V135H216.268ZM214.768 81.48H166.888V84.48H214.768V81.48ZM165.388 82.98V135H168.388V82.98H165.388ZM166.888 133.5H136.108V136.5H166.888V133.5ZM137.608 135V8.64H134.608V135H137.608ZM136.108 10.14H166.888V7.14H136.108V10.14ZM165.388 8.64V58.14H168.388V8.64H165.388ZM166.888 59.64H214.768V56.64H166.888V59.64ZM216.268 58.14V8.64H213.268V58.14H216.268ZM214.768 10.14H245.548V7.14H214.768V10.14ZM293.148 33.3V31.8H291.648V33.3H293.148ZM293.148 58.86H291.648V60.36H293.148V58.86ZM334.368 58.86H335.868V57.36H334.368V58.86ZM334.368 82.62V84.12H335.868V82.62H334.368ZM293.148 82.62V81.12H291.648V82.62H293.148ZM293.148 110.34H291.648V111.84H293.148V110.34ZM339.768 110.34H341.268V108.84H339.768V110.34ZM339.768 135V136.5H341.268V135H339.768ZM262.368 135H260.868V136.5H262.368V135ZM262.368 8.64V7.14H260.868V8.64H262.368ZM339.768 8.64H341.268V7.14H339.768V8.64ZM339.768 33.3V34.8H341.268V33.3H339.768ZM291.648 33.3V58.86H294.648V33.3H291.648ZM293.148 60.36H334.368V57.36H293.148V60.36ZM332.868 58.86V82.62H335.868V58.86H332.868ZM334.368 81.12H293.148V84.12H334.368V81.12ZM291.648 82.62V110.34H294.648V82.62H291.648ZM293.148 111.84H339.768V108.84H293.148V111.84ZM338.268 110.34V135H341.268V110.34H338.268ZM339.768 133.5H262.368V136.5H339.768V133.5ZM263.868 135V8.64H260.868V135H263.868ZM262.368 10.14H339.768V7.14H262.368V10.14ZM338.268 8.64V33.3H341.268V8.64H338.268ZM339.768 31.8H293.148V34.8H339.768V31.8ZM500.135 135V136.5H501.635V135H500.135ZM469.355 135L468.104 135.827L468.548 136.5H469.355V135ZM417.875 57.06L419.127 56.2333L416.375 52.0674V57.06H417.875ZM417.875 135V136.5H419.375V135H417.875ZM387.095 135H385.595V136.5H387.095V135ZM387.095 8.64V7.14H385.595V8.64H387.095ZM417.875 8.64L419.129 7.81594L418.684 7.14H417.875V8.64ZM469.355 86.94L468.102 87.7641L470.855 91.9519V86.94H469.355ZM469.355 8.64V7.14H467.855V8.64H469.355ZM500.135 8.64H501.635V7.14H500.135V8.64ZM500.135 133.5H469.355V136.5H500.135V133.5ZM470.607 134.173L419.127 56.2333L416.624 57.8867L468.104 135.827L470.607 134.173ZM416.375 57.06V135H419.375V57.06H416.375ZM417.875 133.5H387.095V136.5H417.875V133.5ZM388.595 135V8.64H385.595V135H388.595ZM387.095 10.14H417.875V7.14H387.095V10.14ZM416.622 9.46405L468.102 87.7641L470.609 86.1159L419.129 7.81594L416.622 9.46405ZM470.855 86.94V8.64H467.855V86.94H470.855ZM469.355 10.14H500.135V7.14H469.355V10.14ZM498.635 8.64V135H501.635V8.64H498.635ZM547.827 33.3V31.8H546.327V33.3H547.827ZM547.827 58.86H546.327V60.36H547.827V58.86ZM589.047 58.86H590.547V57.36H589.047V58.86ZM589.047 82.62V84.12H590.547V82.62H589.047ZM547.827 82.62V81.12H546.327V82.62H547.827ZM547.827 110.34H546.327V111.84H547.827V110.34ZM594.447 110.34H595.947V108.84H594.447V110.34ZM594.447 135V136.5H595.947V135H594.447ZM517.047 135H515.547V136.5H517.047V135ZM517.047 8.64V7.14H515.547V8.64H517.047ZM594.447 8.64H595.947V7.14H594.447V8.64ZM594.447 33.3V34.8H595.947V33.3H594.447ZM546.327 33.3V58.86H549.327V33.3H546.327ZM547.827 60.36H589.047V57.36H547.827V60.36ZM587.547 58.86V82.62H590.547V58.86H587.547ZM589.047 81.12H547.827V84.12H589.047V81.12ZM546.327 82.62V110.34H549.327V82.62H546.327ZM547.827 111.84H594.447V108.84H547.827V111.84ZM592.947 110.34V135H595.947V110.34H592.947ZM594.447 133.5H517.047V136.5H594.447V133.5ZM518.547 135V8.64H515.547V135H518.547ZM517.047 10.14H594.447V7.14H517.047V10.14ZM592.947 8.64V33.3H595.947V8.64H592.947ZM594.447 31.8H547.827V34.8H594.447V31.8ZM782.91 8.64L784.361 9.01838L784.851 7.14H782.91V8.64ZM749.97 135V136.5H751.129L751.421 135.378L749.97 135ZM712.71 135L711.252 135.353L711.53 136.5H712.71V135ZM692.55 51.84L694.007 51.4866L691.095 51.4747L692.55 51.84ZM671.67 135V136.5H672.839L673.124 135.365L671.67 135ZM634.41 135L632.956 135.369L633.242 136.5H634.41V135ZM602.37 8.64V7.14H600.442L600.916 9.00867L602.37 8.64ZM635.31 8.64L636.781 8.34915L636.542 7.14H635.31V8.64ZM653.49 100.62L652.018 100.911L654.947 100.976L653.49 100.62ZM675.99 8.64V7.14H674.812L674.532 8.28358L675.99 8.64ZM709.83 8.64L711.29 8.29707L711.018 7.14H709.83V8.64ZM731.43 100.62L729.969 100.963L732.9 100.914L731.43 100.62ZM749.79 8.64V7.14H748.559L748.319 8.34638L749.79 8.64ZM781.458 8.26162L748.518 134.622L751.421 135.378L784.361 9.01838L781.458 8.26162ZM749.97 133.5H712.71V136.5H749.97V133.5ZM714.167 134.647L694.007 51.4866L691.092 52.1934L711.252 135.353L714.167 134.647ZM691.095 51.4747L670.215 134.635L673.124 135.365L694.004 52.2053L691.095 51.4747ZM671.67 133.5H634.41V136.5H671.67V133.5ZM635.863 134.631L603.823 8.27132L600.916 9.00867L632.956 135.369L635.863 134.631ZM602.37 10.14H635.31V7.14H602.37V10.14ZM633.838 8.93085L652.018 100.911L654.961 100.329L636.781 8.34915L633.838 8.93085ZM654.947 100.976L677.447 8.99641L674.532 8.28358L652.032 100.264L654.947 100.976ZM675.99 10.14H709.83V7.14H675.99V10.14ZM708.369 8.98292L729.969 100.963L732.89 100.277L711.29 8.29707L708.369 8.98292ZM732.9 100.914L751.26 8.93362L748.319 8.34638L729.959 100.326L732.9 100.914ZM749.79 10.14H782.91V7.14H749.79V10.14ZM821.55 110.34L820.618 109.165L820.05 109.616V110.34H821.55ZM827.13 105.84L826.175 104.684L827.963 107.088L827.13 105.84ZM854.85 81.9L853.839 80.7918L853.83 80.8008L854.85 81.9ZM875.73 30.78L874.574 31.7353L874.574 31.7353L875.73 30.78ZM854.67 31.86L853.475 30.9534L853.47 30.96L854.67 31.86ZM850.89 46.26V47.76H852.39V46.26H850.89ZM821.19 46.26L819.691 46.2247L819.655 47.76H821.19V46.26ZM827.67 20.7L826.392 19.9151L826.387 19.9233L826.382 19.9316L827.67 20.7ZM844.05 5.57999L843.408 4.22435L843.399 4.22884L844.05 5.57999ZM898.95 11.7L897.881 12.7519L897.89 12.7606L898.95 11.7ZM896.79 76.14L897.961 77.0786L897.965 77.0724L896.79 76.14ZM863.31 108.18L862.395 106.991L858.903 109.68H863.31V108.18ZM911.91 108.18H913.41V106.68H911.91V108.18ZM911.91 133.2V134.7H913.41V133.2H911.91ZM821.55 133.2H820.05V134.7H821.55V133.2ZM822.483 111.515C824.524 109.894 826.012 108.706 826.947 107.953C827.412 107.578 827.749 107.303 827.949 107.135C828.028 107.068 828.142 106.972 828.222 106.892C828.237 106.877 828.26 106.853 828.288 106.823C828.306 106.803 828.367 106.734 828.43 106.638C828.458 106.594 828.527 106.485 828.583 106.331C828.617 106.239 828.783 105.782 828.561 105.244C828.27 104.536 827.625 104.352 827.32 104.322C827.048 104.296 826.839 104.352 826.777 104.368C826.624 104.41 826.511 104.468 826.489 104.479C826.446 104.501 826.412 104.521 826.392 104.533C826.353 104.556 826.319 104.578 826.298 104.592L827.963 107.088C827.962 107.088 827.959 107.091 827.953 107.094C827.948 107.097 827.938 107.104 827.923 107.113C827.911 107.12 827.882 107.137 827.844 107.156C827.826 107.165 827.717 107.221 827.567 107.263C827.507 107.279 827.298 107.335 827.027 107.308C826.723 107.278 826.079 107.094 825.787 106.387C825.566 105.85 825.732 105.394 825.765 105.302C825.821 105.15 825.889 105.042 825.917 104.999C825.978 104.905 826.036 104.84 826.05 104.824C826.073 104.798 826.092 104.78 826.101 104.771C826.132 104.74 826.128 104.747 826.019 104.838C825.845 104.985 825.529 105.242 825.064 105.617C824.139 106.364 822.657 107.546 820.618 109.165L822.483 111.515ZM828.086 106.996C839.856 97.2681 849.121 89.2674 855.871 82.9992L853.83 80.8008C847.14 87.0126 837.925 94.9719 826.175 104.684L828.086 106.996ZM855.861 83.0081C862.777 76.6991 868.616 70.0729 873.368 63.127L870.892 61.433C866.285 68.1671 860.604 74.6209 853.84 80.7918L855.861 83.0081ZM873.368 63.127C878.172 56.1069 880.65 49.1567 880.65 42.3H877.65C877.65 48.4033 875.449 54.7731 870.892 61.433L873.368 63.127ZM880.65 42.3C880.65 37.1611 879.46 32.9389 876.887 29.8247L874.574 31.7353C876.561 34.141 877.65 37.5989 877.65 42.3H880.65ZM876.887 29.8247C874.247 26.629 870.345 25.14 865.47 25.14V28.14C869.716 28.14 872.654 29.411 874.574 31.7353L876.887 29.8247ZM865.47 25.14C860.465 25.14 856.413 27.0808 853.475 30.9534L855.865 32.7666C858.208 29.6792 861.356 28.14 865.47 28.14V25.14ZM853.47 30.96C850.682 34.6786 849.39 39.8458 849.39 46.26H852.39C852.39 40.1942 853.619 35.7614 855.87 32.76L853.47 30.96ZM850.89 44.76H821.19V47.76H850.89V44.76ZM822.69 46.2953C822.926 36.2827 825.043 28.0324 828.959 21.4684L826.382 19.9316C822.138 27.0476 819.935 35.8373 819.691 46.2247L822.69 46.2953ZM828.949 21.4849C833.01 14.8704 838.261 10.0368 844.702 6.93115L843.399 4.22884C836.4 7.60319 830.731 12.8496 826.392 19.9151L828.949 21.4849ZM844.693 6.9356C851.314 3.79933 858.651 2.21999 866.73 2.21999V-0.780009C858.25 -0.780009 850.467 0.880651 843.408 4.22439L844.693 6.9356ZM866.73 2.21999C880.769 2.21999 891.058 5.81556 897.881 12.7518L900.02 10.6481C892.442 2.94442 881.252 -0.780009 866.73 -0.780009V2.21999ZM897.89 12.7606C904.889 19.7603 908.43 28.8989 908.43 40.32H911.43C911.43 28.2211 907.651 18.2797 900.011 10.6393L897.89 12.7606ZM908.43 40.32C908.43 52.7879 904.187 64.4053 895.615 75.2076L897.965 77.0724C906.914 65.7947 911.43 53.5321 911.43 40.32H908.43ZM895.62 75.2014C886.95 86.0103 875.881 96.6088 862.395 106.991L864.226 109.369C877.86 98.8712 889.111 88.1097 897.961 77.0786L895.62 75.2014ZM863.31 109.68H911.91V106.68H863.31V109.68ZM910.41 108.18V133.2H913.41V108.18H910.41ZM911.91 131.7H821.55V134.7H911.91V131.7ZM823.05 133.2V110.34H820.05V133.2H823.05ZM931.943 18.72L930.7 17.8793L930.694 17.8879L931.943 18.72ZM1009.16 18.72L1007.91 19.5521L1007.92 19.5607L1009.16 18.72ZM1009.16 116.64L1007.92 115.799L1007.91 115.808L1009.16 116.64ZM931.943 116.64L930.694 117.472L930.7 117.481L931.943 116.64ZM987.023 39.6L985.63 40.1571L985.633 40.1659L987.023 39.6ZM954.263 39.6L955.652 40.166L955.655 40.1571L954.263 39.6ZM951.743 87.84L950.266 88.1025L950.267 88.1083L951.743 87.84ZM957.503 100.8L956.364 101.776L956.382 101.798L956.402 101.819L957.503 100.8ZM983.603 100.8L982.484 99.801L982.481 99.8035L983.603 100.8ZM989.543 87.84L991.018 88.1083L991.019 88.1025L989.543 87.84ZM921.563 67.5C921.563 47.0305 925.493 31.0986 933.191 19.552L930.694 17.8879C922.552 30.1014 918.563 46.6894 918.563 67.5H921.563ZM933.185 19.5607C940.878 8.19307 953.246 2.39999 970.643 2.39999V-0.600012C952.519 -0.600012 939.087 5.48691 930.7 17.8793L933.185 19.5607ZM970.643 2.39999C988.04 2.39999 1000.34 8.19299 1007.91 19.552L1010.41 17.8879C1002.14 5.48699 988.765 -0.600012 970.643 -0.600012V2.39999ZM1007.92 19.5607C1015.73 31.1057 1019.72 47.0341 1019.72 67.5H1022.72C1022.72 46.6859 1018.67 30.0943 1010.4 17.8793L1007.92 19.5607ZM1019.72 67.5C1019.72 88.2101 1015.73 104.257 1007.92 115.799L1010.4 117.481C1018.67 105.263 1022.72 88.5499 1022.72 67.5H1019.72ZM1007.91 115.808C1000.34 127.167 988.04 132.96 970.643 132.96V135.96C988.765 135.96 1002.14 129.873 1010.41 117.472L1007.91 115.808ZM970.643 132.96C953.246 132.96 940.878 127.167 933.185 115.799L930.7 117.481C939.087 129.873 952.519 135.96 970.643 135.96V132.96ZM933.191 115.808C925.494 104.264 921.563 88.2136 921.563 67.5H918.563C918.563 88.5464 922.551 105.256 930.694 117.472L933.191 115.808ZM992.483 67.5C992.483 55.3071 991.16 45.7794 988.412 39.034L985.633 40.1659C988.165 46.3805 989.483 55.4529 989.483 67.5H992.483ZM988.415 39.0429C986.989 35.4765 984.764 32.7292 981.723 30.8913C978.699 29.0635 974.976 28.2 970.643 28.2V31.2C974.589 31.2 977.736 31.9865 980.172 33.4587C982.591 34.9208 984.416 37.1235 985.63 40.1571L988.415 39.0429ZM970.643 28.2C966.309 28.2 962.586 29.0635 959.562 30.8913C956.521 32.7292 954.296 35.4765 952.87 39.0429L955.655 40.1571C956.869 37.1235 958.694 34.9208 961.113 33.4587C963.549 31.9865 966.696 31.2 970.643 31.2V28.2ZM952.873 39.034C950.125 45.7794 948.803 55.3071 948.803 67.5H951.803C951.803 55.4529 953.12 46.3806 955.652 40.1659L952.873 39.034ZM948.803 67.5C948.803 75.7099 949.285 82.5851 950.266 88.1025L953.219 87.5774C952.28 82.2949 951.803 75.6101 951.803 67.5H948.803ZM950.267 88.1083C951.264 93.5944 953.277 98.1753 956.364 101.776L958.641 99.8238C955.968 96.7047 954.141 92.6456 953.218 87.5717L950.267 88.1083ZM956.402 101.819C959.766 105.452 964.599 107.16 970.643 107.16V104.16C965.166 104.16 961.239 102.628 958.603 99.7809L956.402 101.819ZM970.643 107.16C976.683 107.16 981.473 105.453 984.724 101.797L982.481 99.8035C979.972 102.627 976.123 104.16 970.643 104.16V107.16ZM984.721 101.799C987.938 98.1965 990.018 93.6076 991.018 88.1083L988.067 87.5717C987.147 92.6324 985.267 96.6835 982.484 99.801L984.721 101.799ZM991.019 88.1025C992 82.5851 992.483 75.7099 992.483 67.5H989.483C989.483 75.6101 989.005 82.2949 988.066 87.5774L991.019 88.1025ZM1031 110.34L1030.07 109.165L1029.5 109.616V110.34H1031ZM1036.58 105.84L1035.63 104.684L1037.42 107.088L1036.58 105.84ZM1064.3 81.9L1063.29 80.7918L1063.28 80.8008L1064.3 81.9ZM1085.18 30.78L1084.03 31.7353L1084.03 31.7353L1085.18 30.78ZM1064.12 31.86L1062.93 30.9534L1062.92 30.96L1064.12 31.86ZM1060.34 46.26V47.76H1061.84V46.26H1060.34ZM1030.64 46.26L1029.14 46.2247L1029.11 47.76H1030.64V46.26ZM1037.12 20.7L1035.85 19.9151L1035.84 19.9233L1035.84 19.9316L1037.12 20.7ZM1053.5 5.57999L1052.86 4.22435L1052.85 4.22884L1053.5 5.57999ZM1108.4 11.7L1107.33 12.7519L1107.34 12.7606L1108.4 11.7ZM1106.24 76.14L1107.41 77.0786L1107.42 77.0724L1106.24 76.14ZM1072.76 108.18L1071.85 106.991L1068.36 109.68H1072.76V108.18ZM1121.36 108.18H1122.86V106.68H1121.36V108.18ZM1121.36 133.2V134.7H1122.86V133.2H1121.36ZM1031 133.2H1029.5V134.7H1031V133.2ZM1031.94 111.515C1033.98 109.894 1035.47 108.706 1036.4 107.953C1036.87 107.578 1037.2 107.303 1037.4 107.135C1037.48 107.068 1037.6 106.972 1037.68 106.892C1037.69 106.877 1037.71 106.853 1037.74 106.823C1037.76 106.803 1037.82 106.734 1037.88 106.638C1037.91 106.594 1037.98 106.485 1038.04 106.331C1038.07 106.239 1038.24 105.782 1038.02 105.244C1037.72 104.536 1037.08 104.352 1036.77 104.322C1036.5 104.296 1036.29 104.352 1036.23 104.368C1036.08 104.41 1035.97 104.468 1035.94 104.479C1035.9 104.501 1035.87 104.521 1035.85 104.533C1035.81 104.556 1035.77 104.578 1035.75 104.592L1037.42 107.088C1037.42 107.088 1037.41 107.091 1037.41 107.094C1037.4 107.097 1037.39 107.104 1037.38 107.113C1037.36 107.12 1037.34 107.137 1037.3 107.156C1037.28 107.165 1037.17 107.221 1037.02 107.263C1036.96 107.279 1036.75 107.335 1036.48 107.308C1036.18 107.278 1035.53 107.094 1035.24 106.387C1035.02 105.85 1035.19 105.394 1035.22 105.302C1035.27 105.15 1035.34 105.042 1035.37 104.999C1035.43 104.905 1035.49 104.84 1035.5 104.824C1035.53 104.798 1035.55 104.78 1035.55 104.771C1035.59 104.74 1035.58 104.747 1035.47 104.838C1035.3 104.985 1034.98 105.242 1034.52 105.617C1033.59 106.364 1032.11 107.546 1030.07 109.165L1031.94 111.515ZM1037.54 106.996C1049.31 97.2681 1058.57 89.2674 1065.33 82.9992L1063.28 80.8008C1056.59 87.0126 1047.38 94.9719 1035.63 104.684L1037.54 106.996ZM1065.32 83.0081C1072.23 76.6991 1078.07 70.0729 1082.82 63.127L1080.35 61.433C1075.74 68.1671 1070.06 74.6209 1063.29 80.7918L1065.32 83.0081ZM1082.82 63.127C1087.63 56.1069 1090.1 49.1567 1090.1 42.3H1087.1C1087.1 48.4033 1084.9 54.7731 1080.35 61.433L1082.82 63.127ZM1090.1 42.3C1090.1 37.1611 1088.91 32.9389 1086.34 29.8247L1084.03 31.7353C1086.02 34.141 1087.1 37.5989 1087.1 42.3H1090.1ZM1086.34 29.8247C1083.7 26.629 1079.8 25.14 1074.92 25.14V28.14C1079.17 28.14 1082.11 29.411 1084.03 31.7353L1086.34 29.8247ZM1074.92 25.14C1069.92 25.14 1065.87 27.0808 1062.93 30.9534L1065.32 32.7666C1067.66 29.6792 1070.81 28.14 1074.92 28.14V25.14ZM1062.92 30.96C1060.14 34.6786 1058.84 39.8458 1058.84 46.26H1061.84C1061.84 40.1942 1063.07 35.7614 1065.32 32.76L1062.92 30.96ZM1060.34 44.76H1030.64V47.76H1060.34V44.76ZM1032.14 46.2953C1032.38 36.2827 1034.5 28.0324 1038.41 21.4684L1035.84 19.9316C1031.59 27.0476 1029.39 35.8373 1029.14 46.2247L1032.14 46.2953ZM1038.4 21.4849C1042.46 14.8704 1047.71 10.0368 1054.16 6.93115L1052.85 4.22884C1045.85 7.60319 1040.18 12.8496 1035.85 19.9151L1038.4 21.4849ZM1054.15 6.9356C1060.77 3.79933 1068.11 2.21999 1076.18 2.21999V-0.780009C1067.7 -0.780009 1059.92 0.880651 1052.86 4.22439L1054.15 6.9356ZM1076.18 2.21999C1090.22 2.21999 1100.51 5.81556 1107.33 12.7518L1109.47 10.6481C1101.9 2.94442 1090.71 -0.780009 1076.18 -0.780009V2.21999ZM1107.34 12.7606C1114.34 19.7603 1117.88 28.8989 1117.88 40.32H1120.88C1120.88 28.2211 1117.11 18.2797 1109.47 10.6393L1107.34 12.7606ZM1117.88 40.32C1117.88 52.7879 1113.64 64.4053 1105.07 75.2076L1107.42 77.0724C1116.37 65.7947 1120.88 53.5321 1120.88 40.32H1117.88ZM1105.07 75.2014C1096.4 86.0103 1085.33 96.6088 1071.85 106.991L1073.68 109.369C1087.31 98.8712 1098.57 88.1097 1107.41 77.0786L1105.07 75.2014ZM1072.76 109.68H1121.36V106.68H1072.76V109.68ZM1119.86 108.18V133.2H1122.86V108.18H1119.86ZM1121.36 131.7H1031V134.7H1121.36V131.7ZM1032.5 133.2V110.34H1029.5V133.2H1032.5ZM1130.6 40.68L1129.1 40.624L1129.04 42.18H1130.6V40.68ZM1143.2 10.98L1144.19 12.1067L1144.19 12.1067L1143.2 10.98ZM1198.46 5.22L1197.8 6.56672L1197.81 6.5715L1198.46 5.22ZM1213.04 18L1211.75 18.7717L1211.76 18.7821L1211.76 18.7924L1213.04 18ZM1212.14 55.62L1213.3 56.5605L1213.31 56.5537L1213.32 56.5467L1212.14 55.62ZM1198.28 65.7L1197.79 64.2802L1196.78 64.6266V65.7H1198.28ZM1198.28 66.42H1196.78V67.5011L1197.8 67.843L1198.28 66.42ZM1215.2 117.9L1213.91 117.124L1213.91 117.132L1215.2 117.9ZM1200.26 131.22L1199.6 129.873L1199.59 129.878L1200.26 131.22ZM1142.48 125.46L1141.52 126.614L1141.53 126.62L1142.48 125.46ZM1128.98 93.42V91.92H1127.43L1127.48 93.4704L1128.98 93.42ZM1158.86 93.42L1160.36 93.3859L1160.32 91.92H1158.86V93.42ZM1163.36 106.02L1162.25 107.037L1162.26 107.048L1162.27 107.059L1163.36 106.02ZM1186.76 106.56L1185.67 105.523L1185.67 105.524L1186.76 106.56ZM1185.14 83.34L1184.25 84.5496L1184.27 84.5662L1184.3 84.5819L1185.14 83.34ZM1161.92 79.38H1160.42V80.88H1161.92V79.38ZM1161.92 54.36V52.86H1160.42V54.36H1161.92ZM1182.44 51.3L1183.16 52.6152L1183.16 52.6113L1183.17 52.6074L1182.44 51.3ZM1184.6 29.88L1185.66 28.8193L1185.66 28.8193L1184.6 29.88ZM1164.44 30.42L1163.28 29.4647L1163.27 29.4799L1163.26 29.4955L1164.44 30.42ZM1160.66 40.68V42.18H1162.03L1162.15 40.8118L1160.66 40.68ZM1132.1 40.736C1132.56 28.211 1136.64 18.737 1144.19 12.1067L1142.21 9.85325C1133.91 17.143 1129.59 27.469 1129.1 40.624L1132.1 40.736ZM1144.19 12.1067C1151.76 5.44964 1162.11 2.03999 1175.42 2.03999V-0.960007C1161.6 -0.960007 1150.47 2.59035 1142.21 9.85325L1144.19 12.1067ZM1175.42 2.03999C1184.25 2.03999 1191.69 3.57105 1197.8 6.56668L1199.12 3.87331C1192.5 0.62894 1184.59 -0.960007 1175.42 -0.960007V2.03999ZM1197.81 6.5715C1204.06 9.583 1208.68 13.6572 1211.75 18.7717L1214.32 17.2283C1210.91 11.5427 1205.81 7.09698 1199.11 3.86849L1197.81 6.5715ZM1211.76 18.7924C1214.97 23.9409 1216.58 29.7235 1216.58 36.18H1219.58C1219.58 29.1965 1217.83 22.8591 1214.31 17.2075L1211.76 18.7924ZM1216.58 36.18C1216.58 43.8451 1214.66 49.975 1210.96 54.6933L1213.32 56.5467C1217.53 51.185 1219.58 44.3549 1219.58 36.18H1216.58ZM1210.97 54.6795C1207.16 59.4082 1202.77 62.5836 1197.79 64.2802L1198.76 67.1198C1204.34 65.2164 1209.19 61.6718 1213.3 56.5605L1210.97 54.6795ZM1196.78 65.7V66.42H1199.78V65.7H1196.78ZM1197.8 67.843C1204.38 70.0359 1209.52 73.6467 1213.28 78.66L1215.68 76.86C1211.52 71.3133 1205.85 67.3641 1198.75 64.997L1197.8 67.843ZM1213.28 78.66C1217 83.6205 1218.92 90.0608 1218.92 98.1H1221.92C1221.92 89.5792 1219.88 82.4595 1215.68 76.86L1213.28 78.66ZM1218.92 98.1C1218.92 105.296 1217.24 111.623 1213.91 117.124L1216.48 118.676C1220.12 112.657 1221.92 105.784 1221.92 98.1H1218.92ZM1213.91 117.132C1210.71 122.493 1205.97 126.746 1199.6 129.873L1200.92 132.567C1207.75 129.214 1212.96 124.587 1216.49 118.668L1213.91 117.132ZM1199.59 129.878C1193.36 132.992 1185.86 134.58 1177.04 134.58V137.58C1186.21 137.58 1194.19 135.928 1200.93 132.562L1199.59 129.878ZM1177.04 134.58C1162.88 134.58 1151.73 131.103 1143.43 124.3L1141.53 126.62C1150.5 133.977 1162.39 137.58 1177.04 137.58V134.58ZM1143.44 124.306C1135.33 117.575 1130.95 107.354 1130.48 93.3696L1127.48 93.4704C1127.97 108.046 1132.58 119.185 1141.52 126.614L1143.44 124.306ZM1128.98 94.92H1158.86V91.92H1128.98V94.92ZM1157.36 93.4541C1157.48 99.0068 1159.07 103.588 1162.25 107.037L1164.46 105.003C1161.88 102.212 1160.47 98.3932 1160.36 93.3859L1157.36 93.4541ZM1162.27 107.059C1165.52 110.441 1170.17 112.02 1175.96 112.02V109.02C1170.71 109.02 1166.95 107.599 1164.44 104.981L1162.27 107.059ZM1175.96 112.02C1180.92 112.02 1184.96 110.61 1187.84 107.596L1185.67 105.524C1183.51 107.79 1180.35 109.02 1175.96 109.02V112.02ZM1187.84 107.597C1190.79 104.513 1192.22 100.519 1192.22 95.76H1189.22C1189.22 99.8811 1188 103.087 1185.67 105.523L1187.84 107.597ZM1192.22 95.76C1192.22 89.6596 1190.22 84.9751 1185.98 82.0981L1184.3 84.5819C1187.49 86.7449 1189.22 90.3404 1189.22 95.76H1192.22ZM1186.02 82.1304C1182.03 79.2023 1175.81 77.88 1167.68 77.88V80.88C1175.62 80.88 1181.04 82.1977 1184.25 84.5496L1186.02 82.1304ZM1167.68 77.88H1161.92V80.88H1167.68V77.88ZM1163.42 79.38V54.36H1160.42V79.38H1163.42ZM1161.92 55.86H1167.68V52.86H1161.92V55.86ZM1167.68 55.86C1173.94 55.86 1179.14 54.8183 1183.16 52.6152L1181.72 49.9848C1178.29 51.8617 1173.65 52.86 1167.68 52.86V55.86ZM1183.17 52.6074C1187.6 50.1179 1189.7 45.7578 1189.7 39.96H1186.7C1186.7 44.9622 1184.96 48.1621 1181.7 49.9926L1183.17 52.6074ZM1189.7 39.96C1189.7 35.3561 1188.41 31.5721 1185.66 28.8193L1183.54 30.9407C1185.58 32.9879 1186.7 35.9239 1186.7 39.96H1189.7ZM1185.66 28.8193C1182.91 26.0744 1179.19 24.78 1174.7 24.78V27.78C1178.6 27.78 1181.48 28.8856 1183.54 30.9407L1185.66 28.8193ZM1174.7 24.78C1169.82 24.78 1165.92 26.269 1163.28 29.4647L1165.59 31.3753C1167.51 29.051 1170.45 27.78 1174.7 27.78V24.78ZM1163.26 29.4955C1160.89 32.5203 1159.54 36.229 1159.16 40.5482L1162.15 40.8118C1162.49 36.971 1163.66 33.8397 1165.62 31.3445L1163.26 29.4955ZM1160.66 39.18H1130.6V42.18H1160.66V39.18Z" fill="#0C315F" fill-opacity="0.25" mask="url(#path-1-outside-1_411_8)"/>
<path d="M110.44 195.7H55.44L47.08 221H1.76L58.3 65.9H108.02L164.34 221H118.8L110.44 195.7ZM99.66 162.7L82.94 112.54L66.44 162.7H99.66ZM208.314 65.9V221H165.194V65.9H208.314ZM298.21 221L267.41 163.8H262.79V221H219.67V65.9H287.65C300.117 65.9 310.677 68.1 319.33 72.5C327.983 76.7533 334.51 82.6933 338.91 90.32C343.31 97.8 345.51 106.233 345.51 115.62C345.51 126.18 342.577 135.493 336.71 143.56C330.99 151.48 322.557 157.127 311.41 160.5L346.39 221H298.21ZM262.79 134.32H284.13C289.997 134.32 294.397 132.927 297.33 130.14C300.263 127.353 301.73 123.32 301.73 118.04C301.73 113.053 300.19 109.167 297.11 106.38C294.177 103.447 289.85 101.98 284.13 101.98H262.79V134.32ZM483.569 65.9V168.64C483.569 186.093 478.802 199.44 469.269 208.68C459.882 217.92 446.902 222.54 430.329 222.54C412.729 222.54 398.649 217.627 388.089 207.8C377.675 197.973 372.469 183.82 372.469 165.34H415.149C415.295 177.513 419.769 183.6 428.569 183.6C436.489 183.6 440.449 178.613 440.449 168.64V65.9H483.569ZM570.465 222.54C555.945 222.54 542.598 219.167 530.425 212.42C518.252 205.527 508.572 196.067 501.385 184.04C494.345 171.867 490.825 158.153 490.825 142.9C490.825 127.647 494.345 114.007 501.385 101.98C508.572 89.8067 518.252 80.3467 530.425 73.6C542.598 66.8533 555.945 63.48 570.465 63.48C585.132 63.48 598.478 66.8533 610.505 73.6C622.678 80.3467 632.285 89.8067 639.325 101.98C646.365 114.007 649.885 127.647 649.885 142.9C649.885 158.153 646.365 171.867 639.325 184.04C632.285 196.067 622.678 205.527 610.505 212.42C598.332 219.167 584.985 222.54 570.465 222.54ZM570.465 182.5C581.465 182.5 590.118 178.907 596.425 171.72C602.878 164.533 606.105 154.927 606.105 142.9C606.105 130.58 602.878 120.9 596.425 113.86C590.118 106.673 581.465 103.08 570.465 103.08C559.318 103.08 550.592 106.673 544.285 113.86C537.978 120.9 534.825 130.58 534.825 142.9C534.825 155.073 537.978 164.753 544.285 171.94C550.592 178.98 559.318 182.5 570.465 182.5ZM734.609 221L703.809 163.8H699.189V221H656.069V65.9H724.049C736.516 65.9 747.076 68.1 755.729 72.5C764.383 76.7533 770.909 82.6933 775.309 90.32C779.709 97.8 781.909 106.233 781.909 115.62C781.909 126.18 778.976 135.493 773.109 143.56C767.389 151.48 758.956 157.127 747.809 160.5L782.789 221H734.609ZM699.189 134.32H720.529C726.396 134.32 730.796 132.927 733.729 130.14C736.663 127.353 738.129 123.32 738.129 118.04C738.129 113.053 736.589 109.167 733.509 106.38C730.576 103.447 726.249 101.98 720.529 101.98H699.189V134.32ZM849.698 65.9C865.978 65.9 880.205 69.2 892.378 75.8C904.698 82.2533 914.158 91.3467 920.758 103.08C927.358 114.813 930.658 128.233 930.658 143.34C930.658 158.3 927.285 171.647 920.538 183.38C913.938 195.113 904.478 204.353 892.158 211.1C879.985 217.7 865.832 221 849.698 221H788.318V65.9H849.698ZM846.398 182.94C859.012 182.94 868.912 179.493 876.098 172.6C883.285 165.707 886.878 155.953 886.878 143.34C886.878 130.58 883.285 120.753 876.098 113.86C868.912 106.82 859.012 103.3 846.398 103.3H831.438V182.94H846.398ZM1035.02 195.7H980.016L971.656 221H926.336L982.876 65.9H1032.6L1088.92 221H1043.38L1035.02 195.7ZM1024.24 162.7L1007.52 112.54L991.016 162.7H1024.24ZM1233.43 221H1190.31L1132.89 134.32V221H1089.77V65.9H1132.89L1190.31 153.68V65.9H1233.43V221Z" fill="url(#paint0_linear_411_8)"/>
<defs>
<linearGradient id="paint0_linear_411_8" x1="84.7582" y1="114.14" x2="1271.35" y2="283.032" gradientUnits="userSpaceOnUse">
<stop stop-color="#4280CF"/>
<stop offset="0.0812499" stop-color="#3975C0"/>
<stop offset="0.451042" stop-color="#0C315F"/>
<stop offset="0.586458" stop-color="#0A2444"/>
<stop offset="0.815625" stop-color="#03234B"/>
<stop offset="1" stop-color="#4280CF"/>
</linearGradient>
</defs>
</svg>
